mtllib materials.mtl
v 0.6301317 -0.3994644 -0.4025683
v -0.04391479 0.2726834 1.042728
v 0.6301317 0.2205355 -0.4025683
v 0.01013184 -0.3894644 -0.1325683
v 0.01013184 0.2305355 -0.1325683
v -0.04986811 0.2705355 1.037432
v -0.04764271 -0.3473053 1.042594
v -0.003064394 0.2152348 0.8738241
v 0.5477355 0.1747348 -0.2925758
v 0.04553556 0.1828346 -0.07387573
v -0.003052711 0.2245288 0.8735069
v 0.5477471 0.1840289 -0.2928929
v 0.04554725 0.1921287 -0.07419294
v -0.003002882 0.263788 0.8721672
v 0.547797 0.2232881 -0.2942325
v 0.04559708 0.2313879 -0.07553262
v -0.5998678 0.2205355 -0.4025685
v -0.04582119 0.2726834 1.042728
v -0.5998678 -0.3994644 -0.4025685
v -0.03986764 0.2705355 1.037432
v 0.01013207 0.2305355 -0.1325682
v 0.01013207 -0.3894644 -0.1325682
v -0.04209328 -0.3473053 1.042594
v -0.07211828 0.2248702 0.8735
v -0.0316186 0.1924701 -0.0741998
v -0.5257183 0.1843703 -0.2929
v -0.07218051 0.2751412 0.8717787
v -0.03168082 0.2427411 -0.07592106
v -0.5257806 0.2346413 -0.2946212
v -0.6198673 0.3105354 -1.352569
v 0.004178762 0.2226834 -0.2872722
v -0.6198673 -0.3094645 -1.352569
v 0.01013231 0.2205355 -0.2925684
v -0.00986743 0.3205354 -1.082568
v -0.00986743 -0.2994645 -1.082568
v 0.007906675 -0.3973053 -0.287406
v -0.02779889 0.1883969 -0.4154084
v -0.04399872 0.269397 -1.055308
v -0.5380988 0.261297 -1.274009
v -0.02903533 0.2052786 -0.4132402
v -0.04523516 0.2862787 -1.05314
v -0.5393353 0.2781787 -1.27184
v -0.03098845 0.2319465 -0.4098151
v -0.04718828 0.3129466 -1.049715
v -0.5412885 0.3048465 -1.268415
v 0.6101322 -0.3094645 -1.352568
v 0.006085157 0.2226834 -0.2872722
v 0.6101322 0.3105354 -1.352568
v -0.009867668 -0.2994645 -1.082568
v -0.009867668 0.3205354 -1.082568
v 0.0001318455 0.2205355 -0.2925682
v 0.002357244 -0.3973053 -0.2874057
v 0.03613663 0.2044117 -0.4132738
v 0.530237 0.2773118 -1.271874
v 0.02803707 0.2854118 -1.053174
v 0.03816986 0.2331057 -0.4096674
v 0.5322702 0.3060057 -1.268267
v 0.0300703 0.3141057 -1.049567
v -0.6106584 0.3915675 -2.292569
v -0.001431704 0.3058016 -1.252569
v -0.6106585 -0.2137096 -2.292569
v 0.004380465 0.3037047 -1.25774
v 0.004855871 0.3213301 -2.21898
v 0.004855871 -0.283947 -2.21898
v 0.002207518 -0.2994647 -1.2527
v -0.04104781 0.2522526 -1.385226
v -0.04066277 0.2665291 -2.163831
v -0.5392292 0.3234212 -2.223438
v -0.03533697 0.3032827 -1.384288
v -0.03495193 0.3175592 -2.162892
v -0.5335182 0.3744514 -2.2225
v 0.590133 -0.2137096 -2.292567
v 0.0004291534 0.3058016 -1.252569
v 0.590133 0.3915675 -2.292567
v 0.004855394 -0.283947 -2.21898
v 0.004855633 0.3213301 -2.21898
v -0.005382776 0.3037047 -1.257739
v -0.003210306 -0.2994645 -1.252699
v 0.05421972 0.2718058 -1.438758
v 0.4883506 0.3358576 -2.193148
v 0.06168342 0.2846546 -2.139503
v 0.05073333 0.3013861 -1.438253
v 0.4848642 0.3654382 -2.192643
v 0.05819702 0.314235 -2.138997
vn 0.9062852 1.753233E-09 0.4226666
vn -0.9986877 -4.017663E-08 -0.05121471
vn -0.0005167275 -0.9993579 0.03582669
vn -0.7856031 0.4821823 -0.3877217
vn -0.3992668 0 -0.9168348
vn -0.6654319 0.003840259 0.7464488
vn 0.9052829 -0.00553491 0.4247733
vn -0.9987927 -0.004006616 -0.04895994
vn -0.2240792 0.9645634 -0.1393054
vn 0.7911061 0.6113626 0.01966819
vn 0.2400679 0.8191465 0.5209286
vn 0.9043471 0.01341989 0.4265867
vn -0.9986884 -0.0004927357 -0.05119789
vn -0.3994951 -0.03076354 -0.9162191
vn 0.9043471 0.01340894 0.4265872
vn -0.9986884 -0.0004797264 -0.05119834
vn -0.3994947 -0.03075785 -0.9162194
vn 0.001267821 0.9994175 -0.03410324
vn -0.9337426 2.85305E-09 0.3579453
vn 0.9990882 -8.206265E-11 0.04269583
vn 0.0005040239 -0.9993562 0.03587443
vn -0.7131866 0.6988626 -0.05437064
vn 0.4047474 -1.709392E-11 -0.9144286
vn 0.6654173 0.003840161 0.7464617
vn -0.9328407 -0.005686701 0.3602442
vn 0.9990036 -0.003226745 0.04451244
vn 0.2361772 0.9635969 -0.1253047
vn 0.7465439 0.5883085 -0.31075
vn -0.2039741 0.8803511 0.4282247
vn 0.9990884 0.002695439 0.04260362
vn -0.9320775 0.01124399 0.3620844
vn 0.4049775 -0.03078718 -0.9138082
vn -0.001236419 0.9994135 -0.03422099
vn -0.8628527 1.432196E-10 0.5054555
vn 0.9996797 -6.301403E-09 -0.02530827
vn 0.07083625 -0.9898285 -0.1233769
vn -0.8039856 0.5870652 0.09466603
vn 0.4047477 -1.709392E-11 -0.9144284
vn 0.6654261 0.003840091 0.7464539
vn -0.8616858 -0.005290672 0.5074148
vn 0.9997326 -0.003791898 -0.02281368
vn 0.2735432 0.958426 -0.08120216
vn 0.7153847 0.5894933 -0.3751301
vn -0.3302147 0.6061147 0.7235904
vn 0.9970557 0.07504754 -0.01574193
vn -0.8573803 -0.1268615 0.4988037
vn 0.3984454 0.1454958 -0.9055784
vn 0.9970559 0.07504541 -0.01574226
vn -0.8573804 -0.1268602 0.498804
vn 0.3984452 0.1454919 -0.9055791
vn -0.07245496 0.9892458 0.1270555
vn 0.8698893 4.899954E-10 0.4932471
vn -0.9999199 1.333636E-08 0.01265685
vn -0.06857812 -0.9903055 -0.1207978
vn -0.5946125 0.7543728 -0.2781324
vn -0.3992665 0 -0.916835
vn -0.6654263 0.003840345 0.7464537
vn 0.8687322 -0.005330229 0.4952535
vn -0.9998823 -0.003476571 0.01494477
vn -0.2764332 0.9578832 -0.07774673
vn 0.6391742 0.7639401 0.08861078
vn 0.2647983 0.7707472 0.579509
vn 0.8646623 -0.1225024 0.487188
vn -0.9974586 0.06801092 0.02123426
vn -0.3932917 0.142039 -0.9083759
vn 0.07013678 0.9897506 0.1243973
vn -0.8628531 1.511063E-07 0.505455
vn 0.9999999 2.315925E-08 0.0004946756
vn -0.1114414 -0.993638 -0.01626239
vn -0.763498 0.6457086 0.01146209
vn 0.118712 -1.19835E-08 -0.9929287
vn 0.6654263 0.003840033 0.7464538
vn -0.8616861 -0.005290525 0.5074142
vn 0.99999 -0.003579977 0.002683237
vn 0.2735456 0.9584253 -0.08120236
vn 0.8049984 0.3922082 -0.4451408
vn -0.003034672 0.7105882 0.7036016
vn 0.9937982 -0.1111882 -0.00154728
vn -0.8532211 0.0860257 0.5144059
vn 0.1192634 0.004911085 -0.9928505
vn 0.1111998 0.9936301 0.01827421
vn 0.869889 -1.523075E-07 0.4932477
vn -0.9999433 3.993055E-07 -0.01065057
vn 0.1172832 -0.9929857 -0.01496738
vn -0.6844682 0.6453811 -0.3390967
vn -0.1247491 3.4092E-08 -0.9921883
vn -0.6654246 0.003840441 0.7464552
vn 0.8687319 -0.005330364 0.4952541
vn -0.999958 -0.003671791 -0.008405749
vn -0.2764339 0.9578826 -0.07775066
vn 0.5210395 0.8532693 0.02119518
vn -0.05076071 0.8925139 0.4481544
vn 0.8595709 0.0927275 0.5025331
vn -0.9930707 -0.116828 -0.01271946
vn -0.1250106 0.00221107 -0.992153
vn -0.1170329 0.9929832 0.0169608
vt 0.08142877 0.2988783
vt 0.2260308 0.2037979
vt 0.132938 0.3333862
vt -0.09912117 0.222416
vt -0.1383127 0.2704579
vt -0.23162 0.1995021
vt 0.03459258 0.318646
vt 0.04026997 0.2512534
vt 0.1497782 0.2080196
vt -0.1115028 0.4170348
vt -0.2302908 0.3108537
vt -0.2138432 0.317899
vt -0.1176249 0.4039057
vt -0.07584401 0.3875552
vt -0.1319133 0.4140171
vt -0.16168 0.3532887
vt -0.1056107 0.3268267
vt 0.01042926 0.3301411
vt 0.05470083 0.3732412
vt 0.05429297 0.3739586
vt 0.08142606 0.3003575
vt 0.1749571 0.1709053
vt 0.2262894 0.2056758
vt -0.2316632 0.1980975
vt -0.1929409 0.1499501
vt -0.09919198 0.2211706
vt -0.05913176 0.3701189
vt -0.1811725 0.2673305
vt -0.180483 0.266877
vt 0.04776159 -0.09462693
vt 0.09977879 0.01042168
vt 0.09171178 0.008263084
vt 0.04957787 -0.07682629
vt 0.07143746 0.2683131
vt 0.05658228 0.3342928
vt 0.05109967 0.3208841
vt 0.06313235 0.2674405
vt 0.1368825 0.317154
vt 0.2108348 0.2113894
vt 0.2115969 0.2119223
vt 0.1376447 0.3176869
vt -0.2152959 0.2055004
vt -0.139743 0.2630089
vt -0.1403062 0.2637489
vt -0.2158591 0.2062403
vt -0.1558515 0.3508987
vt -0.1318332 0.400134
vt -0.132669 0.4005417
vt -0.1566873 0.3513064
vt 0.1376445 0.3176895
vt 0.2115975 0.2119255
vt 0.2148168 0.2141765
vt 0.1408638 0.3199406
vt -0.2158586 0.2062455
vt -0.1403051 0.2637532
vt -0.1426843 0.2668789
vt -0.2182378 0.2093713
vt -0.1566875 0.3513066
vt -0.1326692 0.4005419
vt -0.1361997 0.4022642
vt -0.160218 0.3530289
vt -0.04402383 0.3065381
vt -0.1367831 0.2168118
vt -0.04857277 0.2519459
vt 0.01928298 0.2954106
vt -0.1350625 0.308184
vt 0.01625285 0.2334847
vt 0.2312028 0.2005479
vt 0.1372174 0.2705247
vt 0.09851512 0.2220878
vt 0.1500069 0.2087975
vt 0.04031274 0.2514859
vt -0.00485479 0.202385
vt -0.08359127 0.381893
vt -0.1937586 0.3419786
vt -0.1764411 0.3422873
vt -0.0872056 0.3746179
vt -0.08331351 0.303174
vt -0.1353099 0.3369434
vt -0.1708051 0.2804536
vt -0.1188087 0.2466843
vt 0.2052102 0.2596605
vt 0.2046585 0.2602742
vt 0.1497713 0.231902
vt -0.1338149 0.3078333
vt -0.1373313 0.2459331
vt 0.01705733 0.2322429
vt 0.0984603 0.2230844
vt 0.1930543 0.1530338
vt 0.2311675 0.2016648
vt -0.1539978 0.1274543
vt -0.1543218 0.1266953
vt 0.000385348 0.1195274
vt -0.1809575 -0.08352838
vt -0.02956382 -0.1147849
vt -0.04107621 -0.1073151
vt -0.1637051 -0.08199735
vt 0.0695243 0.2991012
vt 0.01963447 0.3433958
vt 0.01546624 0.3364233
vt 0.05587699 0.3005447
vt 0.1397957 0.2629225
vt 0.2157827 0.2060523
vt 0.2187967 0.2100794
vt 0.1428096 0.2669496
vt -0.1169183 0.3059126
vt 0.007797447 0.2947413
vt 0.008246204 0.2997513
vt -0.1164696 0.3109225
vt -0.1593053 0.2934256
vt -0.1296318 0.3385895
vt -0.1338356 0.3413515
vt -0.1635092 0.2961876
vt -0.04624985 0.2453479
vt -0.1347363 0.21102
vt -0.009638525 0.2055998
vt 0.1624106 0.2638003
vt 0.04434128 0.3009446
vt 0.1396538 0.2061278
vt 0.1131208 0.28017
vt 0.05279828 0.332191
vt 0.01852236 0.2805271
vt 0.01169662 0.2822208
vt -0.06324593 0.3105991
vt -0.1108932 0.2639007
vt 0.02068846 0.4187405
vt -0.05309464 0.388723
vt -0.03987858 0.3877489
vt 0.01988572 0.4120631
vt -0.1128005 0.2742953
vt -0.1647969 0.3080646
vt -0.2002921 0.2515749
vt -0.1482957 0.2178055
vt 0.1594025 0.3398476
vt 0.1588508 0.3404613
vt 0.1039636 0.3120891
vt 0.04570947 0.2995678
vt 0.02233007 0.2421448
vt 0.1402644 0.2039954
vt 0.01851862 0.2816714
vt 0.07938735 0.2295493
vt 0.1131171 0.281317
vt -0.01803965 0.1635973
vt -0.01832751 0.1628238
vt 0.1033275 0.1400174
vt -0.09793887 -0.04162358
vt -0.002693458 -0.1204545
vt -0.008115285 -0.1093448
vt -0.08526406 -0.04549171
vt 0.1839685 0.3527717
vt 0.135224 0.3983237
vt 0.1323904 0.3922243
vt 0.1718734 0.3553272
vt 0.06821451 0.3065641
vt 0.1129344 0.2600551
vt 0.1141645 0.2612379
vt 0.06944464 0.3077469
vt 0.07246864 0.2540782
vt 0.1640278 0.2135065
vt 0.1647191 0.2150667
vt 0.07316 0.2556384
vt -0.1843969 0.2194453
vt -0.1608246 0.268073
vt -0.1623602 0.2688174
vt -0.1859325 0.2201897
vt 0.06944411 0.3077475
vt 0.1141641 0.2612387
vt 0.1161073 0.2631071
vt 0.07138731 0.3096159
vt 0.07315984 0.2556388
vt 0.164719 0.2150672
vt 0.1658112 0.2175318
vt 0.07425196 0.2581035
vt -0.1859327 0.2201908
vt -0.1623603 0.2688184
vt -0.1647861 0.2699944
vt -0.1883585 0.2213667
vt 0.0674714 0.3136214
vt 0.007092816 0.2908755
vt 0.1061023 0.275833
vt 0.0458503 0.3863888
vt 0.1557155 0.3105024
vt 0.09849821 0.4191332
vt -0.02080032 0.2819676
vt -0.05597413 0.3330244
vt -0.1153625 0.2799676
vt -0.06836781 0.3505826
vt -0.06837331 0.2829513
vt 0.005725938 0.2524659
vt -0.007022069 0.459266
vt -0.09189748 0.3707552
vt -0.08075122 0.3768398
vt -0.01200214 0.4485336
vt -0.0685768 0.4240402
vt -0.1246461 0.4505022
vt -0.1544127 0.3897738
vt -0.09834347 0.3633118
vt 0.06678824 0.2666513
vt 0.1110601 0.3097511
vt 0.1106523 0.3104685
vt 0.04552759 0.3873802
vt 0.1030976 0.278741
vt 0.1555749 0.3117582
vt -0.1153813 0.2789045
vt -0.08074982 0.2277356
vt -0.02081941 0.2809183
vt 0.03605687 0.4124753
vt -0.04813984 0.3231144
vt -0.04744566 0.3226682
vt 0.07015718 0.07277339
vt 0.131292 0.123808
vt 0.1255551 0.1253676
vt 0.07603588 0.08402961
vt 0.1460966 0.329308
vt 0.1291016 0.3947692
vt 0.1264549 0.3832375
vt 0.1402209 0.3302139
vt 0.08890187 0.4256608
vt 0.1410994 0.3411513
vt 0.1435659 0.3426748
vt 0.09136842 0.4271843
vt -0.0950444 0.305209
vt -0.04410867 0.3447885
vt -0.04588751 0.3470778
vt -0.09682324 0.3074982
vt -0.1421305 0.3876405
vt -0.1178325 0.4367384
vt -0.1204308 0.4380243
vt -0.1447289 0.3889264
vt 0.07280479 0.339313
vt 0.01337115 0.2597261
vt 0.07291666 0.2845317
vt 0.2403989 0.2417386
vt 0.1251331 0.2780007
vt 0.2181825 0.1854355
vt 0.0439449 0.3427185
vt -0.03321244 0.4000743
vt -0.0684257 0.3508439
vt -0.07519929 0.2672181
vt -0.1651647 0.3025121
vt -0.1945898 0.2475009
vt 0.1174961 0.4582767
vt 0.02700209 0.425815
vt 0.04128756 0.423456
vt 0.1145877 0.4497499
vt -0.1158878 0.307143
vt -0.1694564 0.3353212
vt -0.2045314 0.2837285
vt -0.1509629 0.2555503
vt 0.1382303 0.4006578
vt 0.1376917 0.401257
vt 0.08410792 0.3735585
vt 0.1261179 0.2757854
vt 0.1032937 0.219726
vt 0.2184276 0.1824827
vt -0.06852198 0.3518552
vt 0.009196016 0.2944151
vt 0.04385258 0.3437847
vt 0.07290192 0.1930879
vt 0.07262089 0.1923328
vt 0.1913871 0.1700682
vt -0.1627015 0.02366338
vt -0.2049182 -0.08941358
vt -0.1951849 -0.0823063
vt -0.1609894 0.009286028
vt 0.2528654 0.3740499
vt 0.2122877 0.4214367
vt 0.2079943 0.4135165
vt 0.2408622 0.3751331
vt -0.05443641 0.4096076
vt 0.01205251 0.3690674
vt 0.01472612 0.3734523
vt -0.05176281 0.4139925
vt 0.1318355 0.2969437
vt 0.226041 0.2707939
vt 0.2274146 0.2757425
vt 0.1332091 0.3018923
vt -0.194181 0.2864239
vt -0.1658459 0.3282653
vt -0.1700983 0.331145
vt -0.1984334 0.2893036
vt 0.1649977 0.2913816
vt 0.09246297 0.2630444
vt 0.1888796 0.246848
vt 0.01131701 0.4600438
vt 0.1185733 0.3859594
vt 0.06271471 0.4920107
vt 0.06579723 0.3532204
vt 0.02993323 0.4019787
vt -0.04645996 0.3436001
vt -0.1456915 0.4062018
vt -0.1579556 0.3480763
vt -0.06691928 0.3156353
vt 0.05410219 0.5052702
vt -0.02724238 0.4174331
vt -0.0103754 0.426861
vt 0.04892479 0.4908942
vt -0.07984991 0.4158684
vt -0.1343684 0.4421616
vt -0.1536666 0.3859783
vt -0.09914809 0.3596851
vt 0.1194151 0.2277783
vt 0.1626357 0.2698545
vt 0.1622376 0.2705549
vt 0.01065861 0.460721
vt 0.0668615 0.3546616
vt 0.1180926 0.3868947
vt -0.04657236 0.3425071
vt -0.01120826 0.2936418
vt 0.06567909 0.3521941
vt 0.1248664 0.4403021
vt 0.04266901 0.3530632
vt 0.04334671 0.3526276
vt 0.1157623 0.1379935
vt 0.1969091 0.1895607
vt 0.1865726 0.1909989
vt 0.1274166 0.1534063
vt 0.2034907 0.4020688
vt 0.1843612 0.4583097
vt 0.1791464 0.4439473
vt 0.1930918 0.4029477
vt 0.08388652 0.4674564
vt 0.1192373 0.3876624
vt 0.1219609 0.3888691
vt 0.08661017 0.4686631
vt -0.05539199 0.3220884
vt -0.006061036 0.3718789
vt -0.008177203 0.3739755
vt -0.05750815 0.3241851
vt -0.1480488 0.3883508
vt -0.1339976 0.4293143
vt -0.1368155 0.4302809
vt -0.1508666 0.3893173
vt 0.1385365 0.3999731
vt 0.08155765 0.3338658
vt 0.147505 0.3576055
o group138128194
g mesh138128194
usemtl mat5
f 3/3/1 2/2/1 1/1/1
f 6/6/2 5/5/2 4/4/2
f 7/9/3 4/8/3 1/7/3
f 9/13/4 8/12/4 6/11/4 3/10/4
f 4/17/5 5/16/5 3/15/5 1/14/5
f 2/20/6 6/19/6 7/18/6
f 2/23/7 7/22/7 1/21/7
f 4/26/8 7/25/8 6/24/8
f 6/29/9 2/28/9 3/27/9
f 8/33/10 10/32/10 5/31/10 6/30/10
f 10/37/11 9/36/11 3/35/11 5/34/11
f 19/67/19 18/66/19 17/65/19
f 22/70/20 21/69/20 20/68/20
f 19/73/21 22/72/21 23/71/21
f 25/77/22 24/76/22 20/75/22 21/74/22
f 19/81/23 17/80/23 21/79/23 22/78/23
f 23/84/24 20/83/24 18/82/24
f 19/87/25 23/86/25 18/85/25
f 20/90/26 23/89/26 22/88/26
f 17/93/27 18/92/27 20/91/27
f 24/97/28 26/96/28 17/95/28 20/94/28
f 26/101/29 25/100/29 21/99/29 17/98/29
usemtl mat3
f 12/41/12 11/40/12 8/39/12 9/38/12
f 11/45/13 13/44/13 10/43/13 8/42/13
f 13/49/14 12/48/14 9/47/14 10/46/14
f 15/53/15 14/52/15 11/51/15 12/50/15
f 14/57/16 16/56/16 13/55/16 11/54/16
f 16/61/17 15/60/17 12/59/17 13/58/17
f 16/64/18 14/63/18 15/62/18
f 28/105/30 27/104/30 24/103/30 25/102/30
f 27/109/31 29/108/31 26/107/31 24/106/31
f 29/113/32 28/112/32 25/111/32 26/110/32
f 29/116/33 27/115/33 28/114/33
o group109929103
g mesh109929103
usemtl mat5
f 32/119/34 31/118/34 30/117/34
f 35/122/35 34/121/35 33/120/35
f 32/125/36 35/124/36 36/123/36
f 38/129/37 37/128/37 33/127/37 34/126/37
f 32/133/38 30/132/38 34/131/38 35/130/38
f 36/136/39 33/135/39 31/134/39
f 32/139/40 36/138/40 31/137/40
f 33/142/41 36/141/41 35/140/41
f 30/145/42 31/144/42 33/143/42
f 37/149/43 39/148/43 30/147/43 33/146/43
f 39/153/44 38/152/44 34/151/44 30/150/44
f 48/183/52 47/182/52 46/181/52
f 51/186/53 50/185/53 49/184/53
f 52/189/54 49/188/54 46/187/54
f 54/193/55 53/192/55 51/191/55 48/190/55
f 49/197/56 50/196/56 48/195/56 46/194/56
f 47/200/57 51/199/57 52/198/57
f 47/203/58 52/202/58 46/201/58
f 49/206/59 52/205/59 51/204/59
f 51/209/60 47/208/60 48/207/60
f 53/213/61 55/212/61 50/211/61 51/210/61
f 55/217/62 54/216/62 48/215/62 50/214/62
usemtl mat3
f 41/157/45 40/156/45 37/155/45 38/154/45
f 40/161/46 42/160/46 39/159/46 37/158/46
f 42/165/47 41/164/47 38/163/47 39/162/47
f 44/169/48 43/168/48 40/167/48 41/166/48
f 43/173/49 45/172/49 42/171/49 40/170/49
f 45/177/50 44/176/50 41/175/50 42/174/50
f 45/180/51 43/179/51 44/178/51
f 57/221/63 56/220/63 53/219/63 54/218/63
f 56/225/64 58/224/64 55/223/64 53/222/64
f 58/229/65 57/228/65 54/227/65 55/226/65
f 58/232/66 56/231/66 57/230/66
o group1069140805
g mesh1069140805
usemtl mat5
f 61/235/67 60/234/67 59/233/67
f 64/238/68 63/237/68 62/236/68
f 61/241/69 64/240/69 65/239/69
f 67/245/70 66/244/70 62/243/70 63/242/70
f 61/249/71 59/248/71 63/247/71 64/246/71
f 65/252/72 62/251/72 60/250/72
f 61/255/73 65/254/73 60/253/73
f 62/258/74 65/257/74 64/256/74
f 59/261/75 60/260/75 62/259/75
f 66/265/76 68/264/76 59/263/76 62/262/76
f 68/269/77 67/268/77 63/267/77 59/266/77
f 74/287/82 73/286/82 72/285/82
f 77/290/83 76/289/83 75/288/83
f 78/293/84 75/292/84 72/291/84
f 80/297/85 79/296/85 77/295/85 74/294/85
f 75/301/86 76/300/86 74/299/86 72/298/86
f 73/304/87 77/303/87 78/302/87
f 73/307/88 78/306/88 72/305/88
f 75/310/89 78/309/89 77/308/89
f 77/313/90 73/312/90 74/311/90
f 79/317/91 81/316/91 76/315/91 77/314/91
f 81/321/92 80/320/92 74/319/92 76/318/92
usemtl mat3
f 70/273/78 69/272/78 66/271/78 67/270/78
f 69/277/79 71/276/79 68/275/79 66/274/79
f 71/281/80 70/280/80 67/279/80 68/278/80
f 71/284/81 69/283/81 70/282/81
f 83/325/93 82/324/93 79/323/93 80/322/93
f 82/329/94 84/328/94 81/327/94 79/326/94
f 84/333/95 83/332/95 80/331/95 81/330/95
f 84/336/96 82/335/96 83/334/96
